<svg xmlns="http://www.w3.org/2000/svg" xmlns:xlink="http://www.w3.org/1999/xlink" width="2122pt" height="1916pt" viewBox="0 0 2122.14 1916"><g id="graph0" class="graph" transform="scale(1 1) rotate(0) translate(4 1912)"><title>%3</title><polygon fill="#fff" stroke="transparent" points="-4 4 -4 -1912 2118.14 -1912 2118.14 4 -4 4"/><g id="node1" class="node"><title>0</title><ellipse cx="1461.64" cy="-1746" fill="none" stroke="#000" rx="170.87" ry="18"/><text x="1461.64" y="-1742.3" font-family="Times,serif" font-size="14" text-anchor="middle">input: Tensor[(1, 14, 768), float32]</text></g><g id="node9" class="node"><title>16</title><polygon fill="none" stroke="#000" points="1620.64 -1692 1268.64 -1692 1268.64 -1656 1620.64 -1656 1620.64 -1692"/><text x="1444.64" y="-1670.3" font-family="Times,serif" font-size="14" text-anchor="middle">reshape(·| newshape=[-1, 14, 768], reverse=0)</text></g><g id="edge1" class="edge"><title>0-&gt;16</title><path fill="none" stroke="#000" d="M1457.43,-1727.7C1455.54,-1719.9 1453.26,-1710.51 1451.15,-1701.83"/><polygon fill="#000" stroke="#000" points="1454.55 -1701 1448.79 -1692.1 1447.75 -1702.65 1454.55 -1701"/></g><g id="node2" class="node"><title>1</title><ellipse cx="1092.64" cy="-1890" fill="none" stroke="#000" rx="200.36" ry="18"/><text x="1092.64" y="-1886.3" font-family="Times,serif" font-size="14" text-anchor="middle">query.weight: Tensor[(768, 768), float32]</text></g><g id="node10" class="node"><title>17</title><polygon fill="none" stroke="#000" points="1189.14 -1836 996.14 -1836 996.14 -1800 1189.14 -1800 1189.14 -1836"/><text x="1092.64" y="-1814.3" font-family="Times,serif" font-size="14" text-anchor="middle">transpose(·| axes=[1, 0])</text></g><g id="edge2" class="edge"><title>1-&gt;17</title><path fill="none" stroke="#000" d="M1092.64,-1871.7C1092.64,-1863.98 1092.64,-1854.71 1092.64,-1846.11"/><polygon fill="#000" stroke="#000" points="1096.14 -1846.1 1092.64 -1836.1 1089.14 -1846.1 1096.14 -1846.1"/></g><g id="node3" class="node"><title>2</title><ellipse cx="863.64" cy="-1530" fill="none" stroke="#000" rx="167.07" ry="18"/><text x="863.64" y="-1526.3" font-family="Times,serif" font-size="14" text-anchor="middle">query.bias: Tensor[(768,), float32]</text></g><g id="node15" class="node"><title>22</title><polygon fill="none" stroke="#000" points="1002.14 -1476 931.14 -1476 931.14 -1440 1002.14 -1440 1002.14 -1476"/><text x="966.64" y="-1454.3" font-family="Times,serif" font-size="14" text-anchor="middle">add(·, ·)</text></g><g id="edge9" class="edge"><title>2-&gt;22</title><path fill="none" stroke="#000" d="M888.57,-1512.05C901.88,-1503.01 918.46,-1491.74 932.9,-1481.93"/><polygon fill="#000" stroke="#000" points="935.27 -1484.55 941.58 -1476.03 931.34 -1478.76 935.27 -1484.55"/></g><g id="node4" class="node"><title>3</title><ellipse cx="564.64" cy="-1890" fill="none" stroke="#000" rx="189.57" ry="18"/><text x="564.64" y="-1886.3" font-family="Times,serif" font-size="14" text-anchor="middle">key.weight: Tensor[(768, 768), float32]</text></g><g id="node19" class="node"><title>26</title><polygon fill="none" stroke="#000" points="661.14 -1836 468.14 -1836 468.14 -1800 661.14 -1800 661.14 -1836"/><text x="564.64" y="-1814.3" font-family="Times,serif" font-size="14" text-anchor="middle">transpose(·| axes=[1, 0])</text></g><g id="edge13" class="edge"><title>3-&gt;26</title><path fill="none" stroke="#000" d="M564.64,-1871.7C564.64,-1863.98 564.64,-1854.71 564.64,-1846.11"/><polygon fill="#000" stroke="#000" points="568.14 -1846.1 564.64 -1836.1 561.14 -1846.1 568.14 -1846.1"/></g><g id="node5" class="node"><title>4</title><ellipse cx="156.64" cy="-1530" fill="none" stroke="#000" rx="156.77" ry="18"/><text x="156.64" y="-1526.3" font-family="Times,serif" font-size="14" text-anchor="middle">key.bias: Tensor[(768,), float32]</text></g><g id="node24" class="node"><title>31</title><polygon fill="none" stroke="#000" points="540.14 -1476 469.14 -1476 469.14 -1440 540.14 -1440 540.14 -1476"/><text x="504.64" y="-1454.3" font-family="Times,serif" font-size="14" text-anchor="middle">add(·, ·)</text></g><g id="edge20" class="edge"><title>4-&gt;31</title><path fill="none" stroke="#000" d="M230.86,-1514.07C299.97,-1500.17 400.8,-1479.89 458.85,-1468.21"/><polygon fill="#000" stroke="#000" points="459.71 -1471.61 468.83 -1466.2 458.33 -1464.74 459.71 -1471.61"/></g><g id="node6" class="node"><title>5</title><ellipse cx="1325.64" cy="-882" fill="none" stroke="#000" rx="217.96" ry="18"/><text x="1325.64" y="-878.3" font-family="Times,serif" font-size="14" text-anchor="middle">attention_mask: Tensor[(1, 1, 1, 14), float32]</text></g><g id="node33" class="node"><title>41</title><polygon fill="none" stroke="#000" points="1361.14 -828 1290.14 -828 1290.14 -792 1361.14 -792 1361.14 -828"/><text x="1325.64" y="-806.3" font-family="Times,serif" font-size="14" text-anchor="middle">add(·, ·)</text></g><g id="edge31" class="edge"><title>5-&gt;41</title><path fill="none" stroke="#000" d="M1325.64,-863.7C1325.64,-855.98 1325.64,-846.71 1325.64,-838.11"/><polygon fill="#000" stroke="#000" points="1329.14 -838.1 1325.64 -828.1 1322.14 -838.1 1329.14 -838.1"/></g><g id="node7" class="node"><title>6</title><ellipse cx="1885.64" cy="-1890" fill="none" stroke="#000" rx="200.36" ry="18"/><text x="1885.64" y="-1886.3" font-family="Times,serif" font-size="14" text-anchor="middle">value.weight: Tensor[(768, 768), float32]</text></g><g id="node38" class="node"><title>46</title><polygon fill="none" stroke="#000" points="1982.14 -1836 1789.14 -1836 1789.14 -1800 1982.14 -1800 1982.14 -1836"/><text x="1885.64" y="-1814.3" font-family="Times,serif" font-size="14" text-anchor="middle">transpose(·| axes=[1, 0])</text></g><g id="edge36" class="edge"><title>6-&gt;46</title><path fill="none" stroke="#000" d="M1885.64,-1871.7C1885.64,-1863.98 1885.64,-1854.71 1885.64,-1846.11"/><polygon fill="#000" stroke="#000" points="1889.14 -1846.1 1885.64 -1836.1 1882.14 -1846.1 1889.14 -1846.1"/></g><g id="node8" class="node"><title>7</title><ellipse cx="1581.64" cy="-1530" fill="none" stroke="#000" rx="167.07" ry="18"/><text x="1581.64" y="-1526.3" font-family="Times,serif" font-size="14" text-anchor="middle">value.bias: Tensor[(768,), float32]</text></g><g id="node43" class="node"><title>51</title><polygon fill="none" stroke="#000" points="1617.14 -1476 1546.14 -1476 1546.14 -1440 1617.14 -1440 1617.14 -1476"/><text x="1581.64" y="-1454.3" font-family="Times,serif" font-size="14" text-anchor="middle">add(·, ·)</text></g><g id="edge43" class="edge"><title>7-&gt;51</title><path fill="none" stroke="#000" d="M1581.64,-1511.7C1581.64,-1503.98 1581.64,-1494.71 1581.64,-1486.11"/><polygon fill="#000" stroke="#000" points="1585.14 -1486.1 1581.64 -1476.1 1578.14 -1486.1 1585.14 -1486.1"/></g><g id="node13" class="node"><title>20</title><polygon fill="none" stroke="#000" points="1307.14 -1620 1138.14 -1620 1138.14 -1584 1307.14 -1584 1307.14 -1620"/><text x="1222.64" y="-1598.3" font-family="Times,serif" font-size="14" text-anchor="middle">nn.batch_matmul(·, ·)</text></g><g id="edge5" class="edge"><title>16-&gt;20</title><path fill="none" stroke="#000" d="M1390.61,-1655.97C1359.19,-1646.06 1319.41,-1633.51 1286.45,-1623.12"/><polygon fill="#000" stroke="#000" points="1287.49 -1619.78 1276.9 -1620.11 1285.39 -1626.46 1287.49 -1619.78"/></g><g id="node22" class="node"><title>29</title><polygon fill="none" stroke="#000" points="649.14 -1620 480.14 -1620 480.14 -1584 649.14 -1584 649.14 -1620"/><text x="564.64" y="-1598.3" font-family="Times,serif" font-size="14" text-anchor="middle">nn.batch_matmul(·, ·)</text></g><g id="edge16" class="edge"><title>16-&gt;29</title><path fill="none" stroke="#000" d="M1268.41,-1658.98C1085.06,-1644.4 804.87,-1622.11 659.51,-1610.55"/><polygon fill="#000" stroke="#000" points="659.53 -1607.04 649.28 -1609.73 658.97 -1614.02 659.53 -1607.04"/></g><g id="node41" class="node"><title>49</title><polygon fill="none" stroke="#000" points="1970.14 -1620 1801.14 -1620 1801.14 -1584 1970.14 -1584 1970.14 -1620"/><text x="1885.64" y="-1598.3" font-family="Times,serif" font-size="14" text-anchor="middle">nn.batch_matmul(·, ·)</text></g><g id="edge39" class="edge"><title>16-&gt;49</title><path fill="none" stroke="#000" d="M1551.95,-1655.97C1624.98,-1644.37 1720.72,-1629.18 1790.91,-1618.04"/><polygon fill="#000" stroke="#000" points="1791.75 -1621.45 1801.08 -1616.42 1790.65 -1614.53 1791.75 -1621.45"/></g><g id="node11" class="node"><title>18</title><polygon fill="none" stroke="#000" points="1273.14 -1764 912.14 -1764 912.14 -1728 1273.14 -1728 1273.14 -1764"/><text x="1092.64" y="-1742.3" font-family="Times,serif" font-size="14" text-anchor="middle">reshape(·| newshape=[-1, 768, 768], reverse=0)</text></g><g id="edge3" class="edge"><title>17-&gt;18</title><path fill="none" stroke="#000" d="M1092.64,-1799.7C1092.64,-1791.98 1092.64,-1782.71 1092.64,-1774.11"/><polygon fill="#000" stroke="#000" points="1096.14 -1774.1 1092.64 -1764.1 1089.14 -1774.1 1096.14 -1774.1"/></g><g id="node12" class="node"><title>19</title><polygon fill="none" stroke="#000" points="1216.14 -1692 1005.14 -1692 1005.14 -1656 1216.14 -1656 1216.14 -1692"/><text x="1110.64" y="-1670.3" font-family="Times,serif" font-size="14" text-anchor="middle">transpose(·| axes=[0, 2, 1])</text></g><g id="edge4" class="edge"><title>18-&gt;19</title><path fill="none" stroke="#000" d="M1097.09,-1727.7C1099.09,-1719.9 1101.51,-1710.51 1103.74,-1701.83"/><polygon fill="#000" stroke="#000" points="1107.14 -1702.66 1106.24 -1692.1 1100.36 -1700.92 1107.14 -1702.66"/></g><g id="edge6" class="edge"><title>19-&gt;20</title><path fill="none" stroke="#000" d="M1138.03,-1655.88C1152.54,-1646.81 1170.55,-1635.55 1186.22,-1625.76"/><polygon fill="#000" stroke="#000" points="1188.51 -1628.46 1195.13 -1620.19 1184.8 -1622.52 1188.51 -1628.46"/></g><g id="node14" class="node"><title>21</title><polygon fill="none" stroke="#000" points="1396.14 -1548 1049.14 -1548 1049.14 -1512 1396.14 -1512 1396.14 -1548"/><text x="1222.64" y="-1526.3" font-family="Times,serif" font-size="14" text-anchor="middle">reshape(·| newshape=[1, 14, 768], reverse=0)</text></g><g id="edge7" class="edge"><title>20-&gt;21</title><path fill="none" stroke="#000" d="M1222.64,-1583.7C1222.64,-1575.98 1222.64,-1566.71 1222.64,-1558.11"/><polygon fill="#000" stroke="#000" points="1226.14 -1558.1 1222.64 -1548.1 1219.14 -1558.1 1226.14 -1558.1"/></g><g id="edge8" class="edge"><title>21-&gt;22</title><path fill="none" stroke="#000" d="M1160.34,-1511.97C1114.53,-1499.44 1053.33,-1482.71 1012.08,-1471.43"/><polygon fill="#000" stroke="#000" points="1012.87 -1468.01 1002.3 -1468.75 1011.03 -1474.77 1012.87 -1468.01"/></g><g id="node16" class="node"><title>23</title><polygon fill="none" stroke="#000" points="1149.14 -1404 784.14 -1404 784.14 -1368 1149.14 -1368 1149.14 -1404"/><text x="966.64" y="-1382.3" font-family="Times,serif" font-size="14" text-anchor="middle">reshape(·| newshape=[1, 14, 12, 64], reverse=0)</text></g><g id="edge10" class="edge"><title>22-&gt;23</title><path fill="none" stroke="#000" d="M966.64,-1439.7C966.64,-1431.98 966.64,-1422.71 966.64,-1414.11"/><polygon fill="#000" stroke="#000" points="970.14 -1414.1 966.64 -1404.1 963.14 -1414.1 970.14 -1414.1"/></g><g id="node17" class="node"><title>24</title><polygon fill="none" stroke="#000" points="1081.14 -1332 852.14 -1332 852.14 -1296 1081.14 -1296 1081.14 -1332"/><text x="966.64" y="-1310.3" font-family="Times,serif" font-size="14" text-anchor="middle">transpose(·| axes=[0, 2, 1, 3])</text></g><g id="edge11" class="edge"><title>23-&gt;24</title><path fill="none" stroke="#000" d="M966.64,-1367.7C966.64,-1359.98 966.64,-1350.71 966.64,-1342.11"/><polygon fill="#000" stroke="#000" points="970.14 -1342.1 966.64 -1332.1 963.14 -1342.1 970.14 -1342.1"/></g><g id="node18" class="node"><title>25</title><polygon fill="none" stroke="#000" points="1138.14 -1116 795.14 -1116 795.14 -1080 1138.14 -1080 1138.14 -1116"/><text x="966.64" y="-1094.3" font-family="Times,serif" font-size="14" text-anchor="middle">reshape(·| newshape=[-1, 14, 64], reverse=0)</text></g><g id="edge12" class="edge"><title>24-&gt;25</title><path fill="none" stroke="#000" d="M966.64,-1295.85C966.64,-1258.83 966.64,-1171.18 966.64,-1126.39"/><polygon fill="#000" stroke="#000" points="970.14 -1126.23 966.64 -1116.23 963.14 -1126.23 970.14 -1126.23"/></g><g id="node30" class="node"><title>37</title><polygon fill="none" stroke="#000" points="1051.14 -1044 882.14 -1044 882.14 -1008 1051.14 -1008 1051.14 -1044"/><text x="966.64" y="-1022.3" font-family="Times,serif" font-size="14" text-anchor="middle">nn.batch_matmul(·, ·)</text></g><g id="edge26" class="edge"><title>25-&gt;37</title><path fill="none" stroke="#000" d="M966.64,-1079.7C966.64,-1071.98 966.64,-1062.71 966.64,-1054.11"/><polygon fill="#000" stroke="#000" points="970.14 -1054.1 966.64 -1044.1 963.14 -1054.1 970.14 -1054.1"/></g><g id="node20" class="node"><title>27</title><polygon fill="none" stroke="#000" points="745.14 -1764 384.14 -1764 384.14 -1728 745.14 -1728 745.14 -1764"/><text x="564.64" y="-1742.3" font-family="Times,serif" font-size="14" text-anchor="middle">reshape(·| newshape=[-1, 768, 768], reverse=0)</text></g><g id="edge14" class="edge"><title>26-&gt;27</title><path fill="none" stroke="#000" d="M564.64,-1799.7C564.64,-1791.98 564.64,-1782.71 564.64,-1774.11"/><polygon fill="#000" stroke="#000" points="568.14 -1774.1 564.64 -1764.1 561.14 -1774.1 568.14 -1774.1"/></g><g id="node21" class="node"><title>28</title><polygon fill="none" stroke="#000" points="670.14 -1692 459.14 -1692 459.14 -1656 670.14 -1656 670.14 -1692"/><text x="564.64" y="-1670.3" font-family="Times,serif" font-size="14" text-anchor="middle">transpose(·| axes=[0, 2, 1])</text></g><g id="edge15" class="edge"><title>27-&gt;28</title><path fill="none" stroke="#000" d="M564.64,-1727.7C564.64,-1719.98 564.64,-1710.71 564.64,-1702.11"/><polygon fill="#000" stroke="#000" points="568.14 -1702.1 564.64 -1692.1 561.14 -1702.1 568.14 -1702.1"/></g><g id="edge17" class="edge"><title>28-&gt;29</title><path fill="none" stroke="#000" d="M564.64,-1655.7C564.64,-1647.98 564.64,-1638.71 564.64,-1630.11"/><polygon fill="#000" stroke="#000" points="568.14 -1630.1 564.64 -1620.1 561.14 -1630.1 568.14 -1630.1"/></g><g id="node23" class="node"><title>30</title><polygon fill="none" stroke="#000" points="678.14 -1548 331.14 -1548 331.14 -1512 678.14 -1512 678.14 -1548"/><text x="504.64" y="-1526.3" font-family="Times,serif" font-size="14" text-anchor="middle">reshape(·| newshape=[1, 14, 768], reverse=0)</text></g><g id="edge18" class="edge"><title>29-&gt;30</title><path fill="none" stroke="#000" d="M549.8,-1583.7C542.61,-1575.3 533.84,-1565.07 525.95,-1555.86"/><polygon fill="#000" stroke="#000" points="528.46 -1553.42 519.3 -1548.1 523.15 -1557.97 528.46 -1553.42"/></g><g id="edge19" class="edge"><title>30-&gt;31</title><path fill="none" stroke="#000" d="M504.64,-1511.7C504.64,-1503.98 504.64,-1494.71 504.64,-1486.11"/><polygon fill="#000" stroke="#000" points="508.14 -1486.1 504.64 -1476.1 501.14 -1486.1 508.14 -1486.1"/></g><g id="node25" class="node"><title>32</title><polygon fill="none" stroke="#000" points="766.14 -1404 401.14 -1404 401.14 -1368 766.14 -1368 766.14 -1404"/><text x="583.64" y="-1382.3" font-family="Times,serif" font-size="14" text-anchor="middle">reshape(·| newshape=[1, 14, 12, 64], reverse=0)</text></g><g id="edge21" class="edge"><title>31-&gt;32</title><path fill="none" stroke="#000" d="M524.16,-1439.7C534.02,-1430.97 546.12,-1420.24 556.83,-1410.75"/><polygon fill="#000" stroke="#000" points="559.17 -1413.36 564.33 -1404.1 554.53 -1408.12 559.17 -1413.36"/></g><g id="node26" class="node"><title>33</title><polygon fill="none" stroke="#000" points="704.14 -1332 475.14 -1332 475.14 -1296 704.14 -1296 704.14 -1332"/><text x="589.64" y="-1310.3" font-family="Times,serif" font-size="14" text-anchor="middle">transpose(·| axes=[0, 2, 1, 3])</text></g><g id="edge22" class="edge"><title>32-&gt;33</title><path fill="none" stroke="#000" d="M585.12,-1367.7C585.78,-1359.98 586.58,-1350.71 587.31,-1342.11"/><polygon fill="#000" stroke="#000" points="590.8 -1342.37 588.17 -1332.1 583.83 -1341.77 590.8 -1342.37"/></g><g id="node27" class="node"><title>34</title><polygon fill="none" stroke="#000" points="748.14 -1260 519.14 -1260 519.14 -1224 748.14 -1224 748.14 -1260"/><text x="633.64" y="-1238.3" font-family="Times,serif" font-size="14" text-anchor="middle">transpose(·| axes=[0, 1, 3, 2])</text></g><g id="edge23" class="edge"><title>33-&gt;34</title><path fill="none" stroke="#000" d="M600.51,-1295.7C605.63,-1287.56 611.83,-1277.69 617.48,-1268.7"/><polygon fill="#000" stroke="#000" points="620.53 -1270.43 622.88 -1260.1 614.6 -1266.71 620.53 -1270.43"/></g><g id="node28" class="node"><title>35</title><polygon fill="none" stroke="#000" points="827.14 -1188 484.14 -1188 484.14 -1152 827.14 -1152 827.14 -1188"/><text x="655.64" y="-1166.3" font-family="Times,serif" font-size="14" text-anchor="middle">reshape(·| newshape=[-1, 64, 14], reverse=0)</text></g><g id="edge24" class="edge"><title>34-&gt;35</title><path fill="none" stroke="#000" d="M639.07,-1223.7C641.53,-1215.9 644.48,-1206.51 647.2,-1197.83"/><polygon fill="#000" stroke="#000" points="650.6 -1198.69 650.26 -1188.1 643.92 -1196.59 650.6 -1198.69"/></g><g id="node29" class="node"><title>36</title><polygon fill="none" stroke="#000" points="772.14 -1116 561.14 -1116 561.14 -1080 772.14 -1080 772.14 -1116"/><text x="666.64" y="-1094.3" font-family="Times,serif" font-size="14" text-anchor="middle">transpose(·| axes=[0, 2, 1])</text></g><g id="edge25" class="edge"><title>35-&gt;36</title><path fill="none" stroke="#000" d="M658.36,-1151.7C659.57,-1143.98 661.02,-1134.71 662.38,-1126.11"/><polygon fill="#000" stroke="#000" points="665.85 -1126.53 663.95 -1116.1 658.94 -1125.44 665.85 -1126.53"/></g><g id="edge27" class="edge"><title>36-&gt;37</title><path fill="none" stroke="#000" d="M739.64,-1079.97C783.19,-1069.8 838.61,-1056.87 883.79,-1046.33"/><polygon fill="#000" stroke="#000" points="884.62 -1049.73 893.56 -1044.05 883.03 -1042.91 884.62 -1049.73"/></g><g id="node31" class="node"><title>38</title><polygon fill="none" stroke="#000" points="1189.14 -972 824.14 -972 824.14 -936 1189.14 -936 1189.14 -972"/><text x="1006.64" y="-950.3" font-family="Times,serif" font-size="14" text-anchor="middle">reshape(·| newshape=[1, 12, 14, 14], reverse=0)</text></g><g id="edge28" class="edge"><title>37-&gt;38</title><path fill="none" stroke="#000" d="M976.52,-1007.7C981.13,-999.64 986.7,-989.89 991.79,-980.98"/><polygon fill="#000" stroke="#000" points="994.94 -982.52 996.86 -972.1 988.86 -979.05 994.94 -982.52"/></g><g id="node32" class="node"><title>40</title><polygon fill="none" stroke="#000" points="1080.14 -900 973.14 -900 973.14 -864 1080.14 -864 1080.14 -900"/><text x="1026.64" y="-878.3" font-family="Times,serif" font-size="14" text-anchor="middle">divide(·, 8.0)</text></g><g id="edge29" class="edge"><title>38-&gt;40</title><path fill="none" stroke="#000" d="M1011.58,-935.7C1013.81,-927.9 1016.49,-918.51 1018.97,-909.83"/><polygon fill="#000" stroke="#000" points="1022.37 -910.68 1021.75 -900.1 1015.64 -908.76 1022.37 -910.68"/></g><g id="edge30" class="edge"><title>40-&gt;41</title><path fill="none" stroke="#000" d="M1080.5,-868.27C1086.61,-866.83 1092.76,-865.38 1098.64,-864 1161.45,-849.25 1234.08,-832.31 1279.92,-821.64"/><polygon fill="#000" stroke="#000" points="1280.91 -825 1289.85 -819.33 1279.32 -818.18 1280.91 -825"/></g><g id="node34" class="node"><title>42</title><polygon fill="none" stroke="#000" points="1420.64 -756 1246.64 -756 1246.64 -720 1420.64 -720 1420.64 -756"/><text x="1333.64" y="-734.3" font-family="Times,serif" font-size="14" text-anchor="middle">nn.softmax(·| axis=-1)</text></g><g id="edge32" class="edge"><title>41-&gt;42</title><path fill="none" stroke="#000" d="M1327.61,-791.7C1328.5,-783.98 1329.55,-774.71 1330.54,-766.11"/><polygon fill="#000" stroke="#000" points="1334.02 -766.44 1331.68 -756.1 1327.07 -765.64 1334.02 -766.44"/></g><g id="node35" class="node"><title>43</title><polygon fill="none" stroke="#000" points="1448.14 -684 1265.14 -684 1265.14 -648 1448.14 -648 1448.14 -684"/><text x="1356.64" y="-662.3" font-family="Times,serif" font-size="14" text-anchor="middle">nn.dropout(·| rate=0.1)</text></g><g id="edge33" class="edge"><title>42-&gt;43</title><path fill="none" stroke="#000" d="M1339.32,-719.7C1341.88,-711.9 1344.97,-702.51 1347.82,-693.83"/><polygon fill="#000" stroke="#000" points="1351.22 -694.7 1351.02 -684.1 1344.57 -692.51 1351.22 -694.7"/></g><g id="node36" class="node"><title>44</title><polygon fill="none" stroke="#000" points="1452.64 -612 1284.64 -612 1284.64 -576 1452.64 -576 1452.64 -612"/><text x="1368.64" y="-590.3" font-family="Times,serif" font-size="14" text-anchor="middle">TupleGetItem(idx=0)</text></g><g id="edge34" class="edge"><title>43-&gt;44</title><path fill="none" stroke="#000" d="M1359.6,-647.7C1360.92,-639.98 1362.51,-630.71 1363.99,-622.11"/><polygon fill="#000" stroke="#000" points="1367.46 -622.55 1365.7 -612.1 1360.56 -621.37 1367.46 -622.55"/></g><g id="node37" class="node"><title>45</title><polygon fill="none" stroke="#000" points="1546.14 -540 1203.14 -540 1203.14 -504 1546.14 -504 1546.14 -540"/><text x="1374.64" y="-518.3" font-family="Times,serif" font-size="14" text-anchor="middle">reshape(·| newshape=[-1, 14, 14], reverse=0)</text></g><g id="edge35" class="edge"><title>44-&gt;45</title><path fill="none" stroke="#000" d="M1370.12,-575.7C1370.78,-567.98 1371.58,-558.71 1372.31,-550.11"/><polygon fill="#000" stroke="#000" points="1375.8 -550.37 1373.17 -540.1 1368.83 -549.77 1375.8 -550.37"/></g><g id="node48" class="node"><title>56</title><polygon fill="none" stroke="#000" points="1558.14 -468 1389.14 -468 1389.14 -432 1558.14 -432 1558.14 -468"/><text x="1473.64" y="-446.3" font-family="Times,serif" font-size="14" text-anchor="middle">nn.batch_matmul(·, ·)</text></g><g id="edge48" class="edge"><title>45-&gt;56</title><path fill="none" stroke="#000" d="M1398.85,-503.88C1411.56,-494.89 1427.3,-483.76 1441.06,-474.03"/><polygon fill="#000" stroke="#000" points="1443.18 -476.82 1449.32 -468.19 1439.14 -471.11 1443.18 -476.82"/></g><g id="node39" class="node"><title>47</title><polygon fill="none" stroke="#000" points="2066.14 -1764 1705.14 -1764 1705.14 -1728 2066.14 -1728 2066.14 -1764"/><text x="1885.64" y="-1742.3" font-family="Times,serif" font-size="14" text-anchor="middle">reshape(·| newshape=[-1, 768, 768], reverse=0)</text></g><g id="edge37" class="edge"><title>46-&gt;47</title><path fill="none" stroke="#000" d="M1885.64,-1799.7C1885.64,-1791.98 1885.64,-1782.71 1885.64,-1774.11"/><polygon fill="#000" stroke="#000" points="1889.14 -1774.1 1885.64 -1764.1 1882.14 -1774.1 1889.14 -1774.1"/></g><g id="node40" class="node"><title>48</title><polygon fill="none" stroke="#000" points="1991.14 -1692 1780.14 -1692 1780.14 -1656 1991.14 -1656 1991.14 -1692"/><text x="1885.64" y="-1670.3" font-family="Times,serif" font-size="14" text-anchor="middle">transpose(·| axes=[0, 2, 1])</text></g><g id="edge38" class="edge"><title>47-&gt;48</title><path fill="none" stroke="#000" d="M1885.64,-1727.7C1885.64,-1719.98 1885.64,-1710.71 1885.64,-1702.11"/><polygon fill="#000" stroke="#000" points="1889.14 -1702.1 1885.64 -1692.1 1882.14 -1702.1 1889.14 -1702.1"/></g><g id="edge40" class="edge"><title>48-&gt;49</title><path fill="none" stroke="#000" d="M1885.64,-1655.7C1885.64,-1647.98 1885.64,-1638.71 1885.64,-1630.11"/><polygon fill="#000" stroke="#000" points="1889.14 -1630.1 1885.64 -1620.1 1882.14 -1630.1 1889.14 -1630.1"/></g><g id="node42" class="node"><title>50</title><polygon fill="none" stroke="#000" points="2114.14 -1548 1767.14 -1548 1767.14 -1512 2114.14 -1512 2114.14 -1548"/><text x="1940.64" y="-1526.3" font-family="Times,serif" font-size="14" text-anchor="middle">reshape(·| newshape=[1, 14, 768], reverse=0)</text></g><g id="edge41" class="edge"><title>49-&gt;50</title><path fill="none" stroke="#000" d="M1899.23,-1583.7C1905.76,-1575.39 1913.7,-1565.28 1920.88,-1556.14"/><polygon fill="#000" stroke="#000" points="1923.77 -1558.13 1927.2 -1548.1 1918.27 -1553.81 1923.77 -1558.13"/></g><g id="edge42" class="edge"><title>50-&gt;51</title><path fill="none" stroke="#000" d="M1853.27,-1511.97C1781.96,-1498.06 1684.02,-1478.96 1627.31,-1467.91"/><polygon fill="#000" stroke="#000" points="1627.7 -1464.42 1617.22 -1465.94 1626.36 -1471.29 1627.7 -1464.42"/></g><g id="node44" class="node"><title>52</title><polygon fill="none" stroke="#000" points="1764.14 -1404 1399.14 -1404 1399.14 -1368 1764.14 -1368 1764.14 -1404"/><text x="1581.64" y="-1382.3" font-family="Times,serif" font-size="14" text-anchor="middle">reshape(·| newshape=[1, 14, 12, 64], reverse=0)</text></g><g id="edge44" class="edge"><title>51-&gt;52</title><path fill="none" stroke="#000" d="M1581.64,-1439.7C1581.64,-1431.98 1581.64,-1422.71 1581.64,-1414.11"/><polygon fill="#000" stroke="#000" points="1585.14 -1414.1 1581.64 -1404.1 1578.14 -1414.1 1585.14 -1414.1"/></g><g id="node45" class="node"><title>53</title><polygon fill="none" stroke="#000" points="1695.14 -1332 1466.14 -1332 1466.14 -1296 1695.14 -1296 1695.14 -1332"/><text x="1580.64" y="-1310.3" font-family="Times,serif" font-size="14" text-anchor="middle">transpose(·| axes=[0, 2, 1, 3])</text></g><g id="edge45" class="edge"><title>52-&gt;53</title><path fill="none" stroke="#000" d="M1581.39,-1367.7C1581.28,-1359.98 1581.15,-1350.71 1581.02,-1342.11"/><polygon fill="#000" stroke="#000" points="1584.52 -1342.05 1580.88 -1332.1 1577.52 -1342.15 1584.52 -1342.05"/></g><g id="node46" class="node"><title>54</title><polygon fill="none" stroke="#000" points="1751.14 -1260 1408.14 -1260 1408.14 -1224 1751.14 -1224 1751.14 -1260"/><text x="1579.64" y="-1238.3" font-family="Times,serif" font-size="14" text-anchor="middle">reshape(·| newshape=[-1, 14, 64], reverse=0)</text></g><g id="edge46" class="edge"><title>53-&gt;54</title><path fill="none" stroke="#000" d="M1580.39,-1295.7C1580.28,-1287.98 1580.15,-1278.71 1580.02,-1270.11"/><polygon fill="#000" stroke="#000" points="1583.52 -1270.05 1579.88 -1260.1 1576.52 -1270.15 1583.52 -1270.05"/></g><g id="node47" class="node"><title>55</title><polygon fill="none" stroke="#000" points="1682.14 -1044 1471.14 -1044 1471.14 -1008 1682.14 -1008 1682.14 -1044"/><text x="1576.64" y="-1022.3" font-family="Times,serif" font-size="14" text-anchor="middle">transpose(·| axes=[0, 2, 1])</text></g><g id="edge47" class="edge"><title>54-&gt;55</title><path fill="none" stroke="#000" d="M1579.4,-1223.85C1578.88,-1186.83 1577.65,-1099.18 1577.02,-1054.39"/><polygon fill="#000" stroke="#000" points="1580.52 -1054.18 1576.88 -1044.23 1573.52 -1054.28 1580.52 -1054.18"/></g><g id="edge49" class="edge"><title>55-&gt;56</title><path fill="none" stroke="#000" d="M1576.64,-1007.95C1576.64,-981.29 1576.64,-928.11 1576.64,-883 1576.64,-883 1576.64,-883 1576.64,-593 1576.64,-552.36 1579.06,-537.21 1555.64,-504 1546.9,-491.62 1534.27,-481.42 1521.53,-473.4"/><polygon fill="#000" stroke="#000" points="1523.13 -470.27 1512.74 -468.19 1519.56 -476.3 1523.13 -470.27"/></g><g id="node49" class="node"><title>57</title><polygon fill="none" stroke="#000" points="1656.14 -396 1291.14 -396 1291.14 -360 1656.14 -360 1656.14 -396"/><text x="1473.64" y="-374.3" font-family="Times,serif" font-size="14" text-anchor="middle">reshape(·| newshape=[1, 12, 14, 64], reverse=0)</text></g><g id="edge50" class="edge"><title>56-&gt;57</title><path fill="none" stroke="#000" d="M1473.64,-431.7C1473.64,-423.98 1473.64,-414.71 1473.64,-406.11"/><polygon fill="#000" stroke="#000" points="1477.14 -406.1 1473.64 -396.1 1470.14 -406.1 1477.14 -406.1"/></g><g id="node50" class="node"><title>58</title><polygon fill="none" stroke="#000" points="1588.14 -324 1359.14 -324 1359.14 -288 1588.14 -288 1588.14 -324"/><text x="1473.64" y="-302.3" font-family="Times,serif" font-size="14" text-anchor="middle">transpose(·| axes=[0, 2, 1, 3])</text></g><g id="edge51" class="edge"><title>57-&gt;58</title><path fill="none" stroke="#000" d="M1473.64,-359.7C1473.64,-351.98 1473.64,-342.71 1473.64,-334.11"/><polygon fill="#000" stroke="#000" points="1477.14 -334.1 1473.64 -324.1 1470.14 -334.1 1477.14 -334.1"/></g><g id="node51" class="node"><title>59</title><polygon fill="none" stroke="#000" points="1506.14 -252 1441.14 -252 1441.14 -216 1506.14 -216 1506.14 -252"/><text x="1473.64" y="-230.3" font-family="Times,serif" font-size="14" text-anchor="middle">copy(·)</text></g><g id="edge52" class="edge"><title>58-&gt;59</title><path fill="none" stroke="#000" d="M1473.64,-287.7C1473.64,-279.98 1473.64,-270.71 1473.64,-262.11"/><polygon fill="#000" stroke="#000" points="1477.14 -262.1 1473.64 -252.1 1470.14 -262.1 1477.14 -262.1"/></g><g id="node52" class="node"><title>60</title><polygon fill="none" stroke="#000" points="1647.14 -180 1300.14 -180 1300.14 -144 1647.14 -144 1647.14 -180"/><text x="1473.64" y="-158.3" font-family="Times,serif" font-size="14" text-anchor="middle">reshape(·| newshape=[1, 14, 768], reverse=0)</text></g><g id="edge53" class="edge"><title>59-&gt;60</title><path fill="none" stroke="#000" d="M1473.64,-215.7C1473.64,-207.98 1473.64,-198.71 1473.64,-190.11"/><polygon fill="#000" stroke="#000" points="1477.14 -190.1 1473.64 -180.1 1470.14 -190.1 1477.14 -190.1"/></g><g id="node53" class="node"><title>61</title><polygon fill="none" stroke="#000" points="1516.64 -108 1430.64 -108 1430.64 -72 1516.64 -72 1516.64 -108"/><text x="1473.64" y="-86.3" font-family="Times,serif" font-size="14" text-anchor="middle">Tuple[...])</text></g><g id="edge54" class="edge"><title>60-&gt;61</title><path fill="none" stroke="#000" d="M1473.64,-143.7C1473.64,-135.98 1473.64,-126.71 1473.64,-118.11"/><polygon fill="#000" stroke="#000" points="1477.14 -118.1 1473.64 -108.1 1470.14 -118.1 1477.14 -118.1"/></g><g id="node54" class="node"><title>62</title><polygon fill="none" stroke="#000" points="1513.64 -36 1433.64 -36 1433.64 0 1513.64 0 1513.64 -36"/><text x="1473.64" y="-14.3" font-family="Times,serif" font-size="14" text-anchor="middle">Function</text></g><g id="edge55" class="edge"><title>61-&gt;62</title><path fill="none" stroke="#000" d="M1473.64,-71.7C1473.64,-63.98 1473.64,-54.71 1473.64,-46.11"/><polygon fill="#000" stroke="#000" points="1477.14 -46.1 1473.64 -36.1 1470.14 -46.1 1477.14 -46.1"/></g></g></svg>