<svg xmlns="http://www.w3.org/2000/svg" width="94" height="93" fill="none" viewBox="0 0 94 93"><path fill-rule="evenodd" stroke="#fff" stroke-width="2" d="M47 92C72.4051 92 93 71.629 93 46.5C93 21.371 72.4051 1 47 1C21.5949 1 1 21.371 1 46.5C1 71.629 21.5949 92 47 92Z" clip-rule="evenodd"/><path fill-rule="evenodd" stroke="#fff" stroke-width="2" d="M46.5 54C50.0899 54 53 51.0899 53 47.5C53 43.9101 50.0899 41 46.5 41C42.9101 41 40 43.9101 40 47.5C40 51.0899 42.9101 54 46.5 54Z" clip-rule="evenodd"/><path stroke="#fff" stroke-linecap="square" stroke-width="2" d="M51.364 41.662L62 29"/><path stroke="#fff" stroke-width="2" d="M80.2632 56.2429C86.3529 38.6252 76.9524 19.4255 59.2666 13.3593"/><path stroke="#fff" stroke-width="2" d="M16.2173 34.275C22.307 16.6573 41.5808 7.29299 59.2666 13.3593"/></svg>